<svg width="130" height="47" viewBox="0 0 130 47" fill="none" xmlns="http://www.w3.org/2000/svg">
<path fill-rule="evenodd" clip-rule="evenodd" d="M47.4051 21.5202C47.5349 19.3287 49.9852 17.6312 52.8759 17.7304L52.9539 17.7333C55.5233 17.6142 57.7334 19.0963 57.8902 21.0431C57.9033 21.2019 57.9018 21.3613 57.8863 21.5202H47.4051ZM52.9454 14.2969C46.0084 14.2969 42.971 17.8227 42.0007 20.8054C41.7342 21.6095 41.6006 22.4358 41.6021 23.2656C41.565 25.2299 42.3453 27.1534 43.8323 28.7627C46.0849 30.9583 49.548 32.2436 53.2174 32.2465C56.9624 32.3499 59.4645 31.8687 61.378 31.0448C61.7604 30.8567 61.9419 30.5058 61.8315 30.1718V27.8828C61.8315 27.4162 61.4599 27.196 60.9245 27.4775C58.6843 28.5654 56.0277 29.05 53.3804 28.8521C50.261 28.8211 47.6623 27.0314 47.324 24.681H62.7376C63.0852 24.681 63.3679 24.4696 63.3734 24.2063C63.6445 21.011 62.4201 14.2969 52.9454 14.2969ZM15.5876 29.1131H8.81435C7.94529 29.0944 7.10637 28.8708 6.41189 28.4737C5.68729 28.0883 5.26242 27.4553 5.27864 26.7838C5.27864 25.8553 6.10367 24.0007 10.2288 24.0007H15.5884L15.5876 29.1131ZM20.6204 21.4927C20.6204 19.1494 19.9321 17.369 18.4435 16.1392C16.9572 14.9094 13.9646 14.2975 11.1898 14.2975C8.4057 14.2893 5.66721 14.8417 3.25625 15.8986C3.1033 15.9675 3.00905 16.0931 3.01214 16.2285L3.22071 18.8125C3.27788 19.063 3.59306 19.2306 3.92369 19.1862C4.03261 19.1722 4.13458 19.1354 4.21723 19.0805C7.61776 17.4933 11.6981 17.1973 13.7745 17.9944C14.9387 18.5024 15.6363 19.4577 15.5884 20.4761V20.8533H9.92056C7.4818 20.8533 0.0102255 21.5406 0.0102255 26.7423V26.7978C-0.107194 28.403 0.79199 29.9551 2.43122 30.9753C4.19715 31.9183 6.33233 32.3808 8.48759 32.288H19.9591C20.3292 32.288 20.6297 32.0602 20.6297 31.7799V21.4717L20.6204 21.4927ZM77.5811 28.8112C74.7793 28.8112 72.7569 27.2579 71.9048 25.3269C71.3022 23.9902 71.3022 22.5403 71.9048 21.2037C72.7569 19.2726 74.7793 17.7199 77.5811 17.7199C83.846 17.7199 84.0546 22.5643 84.0546 23.2656C84.0546 23.9663 83.846 28.8112 77.5811 28.8112ZM89.1963 23.272C89.2458 21.3065 88.464 19.38 86.9661 17.7748C82.9445 13.8467 75.483 13.1325 70.2995 16.1807C69.5131 16.6431 68.8071 17.1786 68.196 17.7748C65.1795 21.0834 65.1795 25.4612 68.196 28.7698C70.4123 30.9992 73.8986 32.2932 77.5819 32.2541C79.9588 32.2599 82.2863 31.7286 84.2639 30.7283V32.8999C84.2639 35.8477 80.8634 36.3837 78.6865 36.4865C77.1894 36.5244 75.6908 36.4625 74.2076 36.3014C73.6097 36.2325 73.1925 36.3014 73.1925 36.789V39.4003C73.208 39.6473 73.483 39.8383 73.8082 39.8266C78.8588 40.1565 82.2601 40.0876 84.817 38.9816C86.6077 38.1787 87.9379 36.8964 88.5436 35.3875C88.9955 34.2231 89.2125 33.0138 89.187 31.8004V23.272H89.1963ZM105.89 15.3071V17.369C105.941 17.6627 105.669 17.9325 105.282 17.9722C105.182 17.9821 105.079 17.9757 104.982 17.9535C100.575 17.2662 97.8645 18.7506 97.8645 21.8367V31.8004C97.8645 32.0807 97.5632 32.3084 97.194 32.3084H93.2944C92.9236 32.3084 92.6239 32.0807 92.6239 31.8004V21.6229C92.5768 19.6761 93.6204 17.8052 95.4976 16.4761C97.4041 15.0636 99.968 14.2782 102.634 14.2905C103.547 14.2922 104.457 14.3564 105.354 14.4832C105.817 14.5999 105.889 14.8061 105.889 15.3357V15.3077L105.89 15.3071ZM29.433 31.801C29.433 32.0813 29.1317 32.309 28.7617 32.309H24.8629C24.4921 32.309 24.1916 32.0813 24.1916 31.801V7.50919C24.1916 7.23065 24.4867 7.0035 24.8537 7H28.7524C29.1232 7 29.4245 7.22774 29.4245 7.50919V31.801H29.433ZM38.5909 31.801C38.5909 32.0813 38.2897 32.309 37.9204 32.309H34.0209C33.6501 32.309 33.3496 32.0813 33.3496 31.801V7.50919C33.3496 7.22774 33.6508 7 34.0209 7H37.9204C38.2904 7 38.5909 7.22774 38.5909 7.50919V31.801ZM124.051 25.3415C123.198 27.2725 121.175 28.7768 118.374 28.8252C115.572 28.8737 113.55 27.272 112.706 25.3415C112.104 24.0042 112.104 22.5543 112.706 21.2183C113.559 19.2872 115.581 17.7818 118.374 17.7339C121.167 17.686 123.198 19.2872 124.051 21.2183C124.65 22.5526 124.65 24.0002 124.051 25.3345V25.3415ZM127.768 17.7818C123.746 13.8543 116.285 13.1407 111.101 16.1877C110.316 16.6507 109.609 17.1862 108.998 17.7818C107.51 19.3917 106.73 21.3146 106.767 23.2796C106.73 25.2445 107.51 27.168 108.998 28.7768C113.02 32.7049 120.482 33.4191 125.664 30.3709C126.451 29.909 127.158 29.3735 127.768 28.7768C129.255 27.168 130.036 25.2439 129.999 23.2796C130.036 21.3152 129.255 19.3917 127.768 17.7818Z" fill="black"/>
</svg>
