<svg width="130" height="47" viewBox="0 0 130 47" fill="none" xmlns="http://www.w3.org/2000/svg">
<path fill-rule="evenodd" clip-rule="evenodd" d="M11.89 14.844V7.63123H26.7263L30.7774 26.9261L34.8801 7.63123H39.405L32.8291 38.7378H28.778L23.6749 14.844H19.8341V38.7378H15.4681V14.844H11.89Z" fill="black"/>
<path fill-rule="evenodd" clip-rule="evenodd" d="M4.57711 21.877V13.8532C9.4705 13.3114 9.3653 22.3271 4.57711 21.877ZM8.52372 38.7378H13.5216L9.31236 26.2961C14.5207 23.2297 13.1002 7.4502 7.31361 7.63118H0V38.7378H4.57711V27.1975L8.52372 38.7378ZM91.1731 7.63002H96.3291L101.222 38.7378H97.5908L96.7492 33.2385H90.6478L89.8048 38.7378H86.2804L91.1737 7.63118L91.1731 7.63002ZM95.8554 27.5572H91.5416L93.6985 13.7627L95.8554 27.5572Z" fill="black"/>
<path fill-rule="evenodd" clip-rule="evenodd" d="M107.956 27.9179V21.2469H116.005V32.0656C114.743 34.8616 113.901 37.0253 112.217 38.3781C111.112 39.2784 109.323 40 107.692 40C105.694 40 104.062 39.3689 102.799 38.1078C101.537 36.7538 100.749 35.0414 100.064 32.5157C99.3804 29.9018 99.2223 26.926 99.2223 23.5893C99.2223 20.074 99.4856 16.9183 100.274 14.3938C101.011 11.7788 102.116 9.88535 103.589 8.53143C104.746 7.45015 105.956 7 107.903 7C109.796 7 111.165 7.27032 112.112 7.90146C113.059 8.53143 113.795 9.52454 114.426 10.8773C115.005 12.2301 115.478 13.9425 115.795 16.0169L111.375 17.7293C111.165 16.467 110.849 15.5656 110.323 14.9333C109.849 14.3045 109.218 13.8531 108.482 13.6722C106.957 13.3113 105.747 14.7534 105.062 16.1967C104.378 17.7281 104.062 20.0728 104.062 23.4107C104.062 26.8367 104.378 29.8113 105.062 31.3439C105.747 32.7884 106.746 33.5993 107.956 33.5993C108.535 33.5993 109.113 33.4183 109.639 33.0564C110.165 32.7884 110.744 32.2466 111.428 31.4344V27.9191H107.956V27.9179ZM122.476 14.6641H120.108V31.7952H122.476C126.895 31.7952 127 14.6641 122.476 14.6641ZM121.792 7.63114H116.005V38.8282H121.792C132.63 38.8282 132.841 7.63114 121.792 7.63114Z" fill="black"/>
<path fill-rule="evenodd" clip-rule="evenodd" d="M34.8808 38.7376H89.3317V7.62988H34.8794V38.7376H34.8808ZM35.9327 37.1134H88.332V9.34462H35.9334V37.1157L35.9327 37.1134Z" fill="black"/>
<path fill-rule="evenodd" clip-rule="evenodd" d="M47.928 31.1652H38.7738V15.1142H47.6654V18.2699H41.247V21.516H47.191V23.7703H41.247V28.4597H47.928V31.1652ZM72.7594 31.1652H69.9707L69.9191 26.8366C69.9191 24.5824 68.2882 24.6717 67.2355 24.6717H65.4994V31.1652H62.6062V15.113H69.1298C73.3913 15.113 74.391 21.0647 71.2337 23.2296C72.023 23.6786 72.7065 25.0325 72.7065 26.7449L72.7594 31.164V31.1652ZM65.3942 22.2365H68.1301C68.8671 22.2365 69.4454 22.0555 69.7616 21.7852C70.0765 21.4255 70.2869 20.8837 70.2869 20.1621C70.2869 18.8105 69.6028 18.0889 68.2882 18.0889H65.3942V22.2365ZM80.2828 14.8439C81.1243 14.8439 81.9137 15.0249 82.5978 15.475C83.3342 15.837 83.9654 16.3765 84.4913 17.0993C85.018 17.8186 85.3865 18.7212 85.7015 19.7131C85.9648 20.7944 86.1222 21.8768 86.1222 23.1403C86.1222 24.3121 86.0177 25.4838 85.7015 26.4758C85.4388 27.4689 85.018 28.3692 84.4913 29.0908C83.9654 29.8113 83.3342 30.4424 82.6507 30.8044C81.9137 31.164 81.125 31.4344 80.2828 31.4344C79.4412 31.4344 78.5996 31.1652 77.9155 30.8044C77.1791 30.4424 76.5479 29.8113 76.0749 29.0908C75.5482 28.3692 75.1267 27.5571 74.8647 26.4758C74.5485 25.4838 74.3903 24.4014 74.3903 23.1403C74.3903 21.8768 74.5485 20.7039 74.8647 19.7131C75.1267 18.7212 75.5482 17.8197 76.0749 17.0993C76.6008 16.3765 77.232 15.837 77.9155 15.475C78.6525 15.0249 79.4412 14.8439 80.2828 14.8439ZM80.2828 28.549C80.7565 28.549 81.2302 28.4597 81.7033 28.1894C82.1241 27.9179 82.4926 27.5571 82.8082 27.1069C83.1238 26.6568 83.3342 26.115 83.5446 25.3945C83.7027 24.7634 83.8079 23.9512 83.8079 23.1403C83.8079 22.2377 83.7027 21.516 83.5446 20.7944C83.3342 20.1633 83.1238 19.6226 82.8082 19.1725C82.4926 18.72 82.1241 18.3604 81.7033 18.09C81.2302 17.8197 80.8087 17.7292 80.2828 17.7292C79.809 17.7292 79.336 17.8197 78.8629 18.0889C78.4421 18.3604 78.0736 18.7212 77.758 19.1725C77.4424 19.6226 77.1791 20.1633 77.021 20.8849C76.8635 21.516 76.7583 22.2377 76.7583 23.1403C76.7583 23.9512 76.8635 24.7634 77.021 25.3945C77.1791 26.115 77.4417 26.6568 77.758 27.1069C78.0736 27.5571 78.4415 27.919 78.8629 28.1894C79.2837 28.4597 79.7568 28.549 80.2828 28.549ZM50.6116 15.1142H52.9789V26.4758C53.0834 29.6315 57.7135 29.541 57.6076 26.4758V15.113H60.1859L60.133 26.7449C60.1859 32.6966 50.6632 32.6966 50.6109 26.7449L50.6116 15.1142Z" fill="black"/>
</svg>
