<svg width="130" height="47" viewBox="0 0 130 47" fill="none" xmlns="http://www.w3.org/2000/svg">
<g clip-path="url(#clip0_941_1003)">
<path fill-rule="evenodd" clip-rule="evenodd" d="M66.9761 39.8708C71.5178 39.8708 74.5437 35.2863 74.5437 27.55V7.75824H69.5758V27.239C69.5758 30.8412 68.7446 32.6252 67.0025 32.6252C65.3211 32.6252 64.6013 30.7989 64.6013 27.239V7.75824H59.607V27.55C59.6136 35.4578 62.3787 39.8708 66.9747 39.8708H66.9761ZM81.9187 22.3456H81.0062V14.8324H82.3171C84.5191 14.8324 85.5758 15.9016 85.5758 18.5204C85.5685 21.3633 84.3748 22.3456 81.9187 22.3456ZM87.8532 9.48961C86.4809 7.98238 84.8552 7.75824 82.7147 7.75824H75.9776V39.3791H80.944V29.1956H82.372C84.4847 29.1956 86.0833 28.9703 87.3736 27.7741C89.3969 25.8621 90.5979 22.4851 90.5979 18.3912C90.5979 14.4264 89.6584 11.4451 87.8532 9.48961ZM118.069 21.7681L125.636 39.3802H130V7.75824H125.04V25.3269L117.582 7.75824H113.101V39.3802H118.069V21.7681ZM47.9027 32.1334C45.1031 32.1334 42.5642 28.3082 42.5642 23.3279C42.5642 18.7011 44.9317 15.0153 47.9642 15.0153C50.8187 15.0153 53.1928 18.7011 53.1928 23.3291C53.1855 28.4797 50.8187 32.1346 47.9027 32.1346V32.1334ZM55.1817 11.8511C53.2126 8.82748 50.6466 7.18188 47.9298 7.18188C45.0482 7.18188 42.5305 8.74171 40.5335 11.8088C38.5373 14.8747 37.4462 18.8829 37.4462 23.2422C37.4462 27.9125 38.4209 31.8235 40.3285 34.9878C42.324 38.279 44.8973 39.9669 47.8953 39.9669C50.722 39.9669 53.4052 38.2367 55.3736 35.0312C57.2885 31.963 58.3174 27.9125 58.3174 23.3828C58.3247 19.0533 57.2402 15.0039 55.1817 11.8511ZM101.705 32.1334C98.9066 32.1334 96.3677 28.3082 96.3677 23.3279C96.3677 18.7011 98.7418 15.0153 101.767 15.0153C104.621 15.0153 106.996 18.7011 106.996 23.3291C106.988 28.4797 104.615 32.1346 101.705 32.1346V32.1334ZM108.984 11.8511C107.016 8.82748 104.443 7.18188 101.733 7.18188C98.8443 7.18188 96.334 8.74171 94.337 11.8088C92.34 14.8747 91.2496 18.8829 91.2496 23.2422C91.2496 27.9125 92.2236 31.8235 94.1305 34.9878C96.1348 38.279 98.7001 39.9669 101.699 39.9669C104.526 39.9669 107.208 38.2367 109.177 35.0312C111.091 31.963 112.121 27.9125 112.121 23.3828C112.128 19.0533 111.042 15.0039 108.984 11.8511ZM2.87432 34.9763C4.87056 38.2675 7.41677 40.0001 10.4148 40.0001C13.872 40.0001 17.1249 37.3275 19.0662 32.9248C20.2393 30.2523 20.8091 27.2287 20.8091 23.671C20.8091 23.0077 20.7812 22.2919 20.7541 21.5749H9.18674V27.8908H14.9843C13.9818 30.6491 12.3012 32.1655 10.4148 32.1655C7.61522 32.1655 5.10417 28.2979 5.10417 23.2639C5.10417 18.7228 7.44386 14.9502 10.4148 14.9502C12.0134 14.9502 13.3235 15.9771 14.586 18.0184H20.2393C18.6136 11.253 14.813 7.1167 10.4763 7.1167C7.59472 7.1167 5.08293 8.71998 3.08009 11.787C1.08384 14.8552 4.12655e-05 18.8623 4.12655e-05 23.2216C-0.00728173 27.9022 0.960086 31.8132 2.87432 34.9775V34.9763ZM27.9995 22.3456H27.0314V14.8324H28.4037C30.5992 14.8324 31.6559 15.9016 31.6559 18.5204C31.6559 21.3633 30.4549 22.3456 27.9995 22.3456ZM32.0813 28.522C34.9629 27.2721 36.6787 23.456 36.6787 18.3386C36.6787 14.4275 35.7377 11.4451 33.9341 9.48961C32.5617 7.98238 30.936 7.75824 28.7948 7.75824H22.0576V39.3791H27.0248V29.1956L30.9082 39.3791H37.0485L32.0813 28.522Z" fill="black"/>
</g>
<defs>
<clipPath id="clip0_941_1003">
<rect width="130" height="47" fill="white"/>
</clipPath>
</defs>
</svg>
