<svg width="130" height="47" viewBox="0 0 130 47" fill="none" xmlns="http://www.w3.org/2000/svg">
<path fill-rule="evenodd" clip-rule="evenodd" d="M53.7256 22.0911C52.1055 21.2145 50.403 20.6949 48.7421 19.987C48.0621 19.6971 47.3899 19.3549 46.7275 18.9822C45.9444 18.5415 45.3741 17.7507 45.3812 16.4009C45.3884 14.9614 45.8114 13.7762 46.6776 13.1225C47.6423 12.3939 48.6876 12.4777 49.7322 12.6443C51.4937 12.9273 52.2567 14.5532 52.5934 16.3822C52.6447 16.6612 52.7024 16.9373 52.7531 17.1966H56.8107C57.03 14.1509 55.8544 11.2935 54.2265 9.64789C53.239 8.64909 52.1321 8.15018 50.9545 7.82677C48.9633 7.27955 47.0467 7.44421 45.1541 8.53668C42.8307 9.87861 40.9044 13.0555 41.1555 17.6226C41.2574 19.4762 41.7667 20.966 42.5946 22.2449C43.6067 23.8067 44.9309 24.5333 46.2636 25.1516C47.6352 25.7895 49.0535 26.1997 50.4212 26.8553C51.1673 27.2123 51.9252 27.72 52.5474 28.425C53.6841 29.7127 53.6452 31.9894 52.5591 33.3826C52.0413 34.0471 51.4431 34.4435 50.767 34.5924C49.8262 34.7984 48.9101 34.9335 47.9447 34.6308C46.3252 34.1221 44.99 32.6155 44.7331 30.1949C44.6961 29.8429 44.6305 29.1645 44.6305 29.1645C43.2589 29.1645 41.7323 29.1547 40.4301 29.1547C40.4301 29.1547 40.4593 29.9474 40.4703 30.1475C40.6981 34.1585 42.1599 36.8394 44.4872 38.489C45.7368 39.3734 47.0863 39.7274 48.4754 39.7885C50.4212 39.8743 52.3054 39.6308 54.1045 38.3362C56.9885 36.2597 58.2232 31.4786 57.2649 27.1965C56.6836 24.5974 55.3555 22.9725 53.7256 22.0911Z" fill="white"/>
<path fill-rule="evenodd" clip-rule="evenodd" d="M34.4626 26.1123C34.2186 29.296 33.3706 32.0459 31.4482 33.7763C30.4237 34.6992 29.2974 34.7475 28.1704 34.6696C25.4506 34.4783 23.7688 31.1753 23.2621 27.7283C23.1804 27.1722 23.0681 26.6181 23.0383 26.0541C22.9994 25.3195 22.9643 24.5929 22.9643 23.8534C22.9449 21.7217 23.1596 19.6895 23.7559 17.7659C24.8342 14.2844 26.7196 12.7383 29.2085 12.9198C31.7265 13.1032 33.4024 15.9428 34.0363 18.8524C34.558 21.2504 34.6488 23.6818 34.4626 26.1123ZM36.7951 14.0891C34.8785 9.80503 32.1489 7.85475 28.2333 7.84982C27.1401 7.73545 25.605 8.31521 24.1503 9.38599C22.5056 10.5978 21.2962 12.5273 20.3704 14.8858C19.2868 17.6486 18.9034 20.7179 18.8742 23.8573C18.8534 26.0245 19.0734 28.1917 19.5905 30.2682C20.1232 32.4078 20.8648 34.3304 21.9606 35.8952C23.2641 37.7567 24.8219 38.8739 26.5808 39.4024C29.252 40.2049 31.7875 39.7041 34.12 37.5467C36.2669 35.56 37.5431 32.5478 38.1861 28.9115C38.6435 26.3223 38.7175 23.6956 38.4671 21.0256C38.2315 18.5192 37.7281 16.1755 36.7951 14.0891Z" fill="white"/>
<path fill-rule="evenodd" clip-rule="evenodd" d="M64.3193 33.6543V25.6313H72.8183V20.7744H64.3193V13.7384C67.7836 13.7019 71.3644 13.7512 74.8952 13.7108V8.33813H60.1312V39.0762H74.9218L74.8997 33.6543H64.3193Z" fill="white"/>
<path fill-rule="evenodd" clip-rule="evenodd" d="M10.4556 8.32196C7.17587 8.18688 3.89287 8.2628 0.611179 8.25689H0V13.4777H0.858376C3.63011 13.4777 6.40249 13.456 9.17422 13.4964C9.66861 13.5033 10.2065 13.6187 10.647 13.9322C12.1237 14.9853 12.5844 17.5331 11.9758 19.576C11.4587 21.3143 10.4692 22.107 9.17876 22.0913C6.38497 22.0548 3.59053 22.0775 0.796739 22.0824H0V39.2021H4.02458C4.02458 39.2021 4.02329 38.3413 4.02393 37.9499C4.03107 34.7908 3.99344 31.6238 4.02458 28.4647C4.02458 28.4647 4.02004 26.8171 4.02458 27.0804C4.02458 27.0804 4.33861 27.0813 4.42166 27.0804C5.51491 27.0705 7.26606 27.0656 8.47415 27.0636C9.1048 29.5522 9.9781 33.0268 10.5873 35.4109C10.913 36.6848 11.2906 38.0218 11.6001 39.2021H15.6014C14.5652 35.1152 13.4707 30.8025 12.4079 26.61C12.766 26.2985 12.9101 26.2087 13.132 26.0214C14.3952 24.9546 15.262 23.3228 15.8246 21.3045C16.6317 18.4135 16.4948 15.5975 15.4476 12.9029C14.3297 10.0267 12.6363 8.41169 10.4556 8.32196Z" fill="white"/>
<path fill-rule="evenodd" clip-rule="evenodd" d="M88.1873 22.8576C87.9725 22.8576 87.4911 22.8724 87.4911 22.8724V25.6203H94.2245C94.1492 28.5714 93.6185 31.0708 92.4396 33.2144C91.1037 35.6429 89.4239 37.1761 87.3166 37.3417C86.4705 37.4078 85.5966 37.2342 84.7622 36.973C82.6769 36.3212 81.2385 34.299 80.1641 31.623C79.4822 29.9232 79.174 28.0527 79.1999 26.0581C79.2356 23.3161 78.9878 20.5583 79.5406 17.8517C80.4716 13.2985 82.7716 10.1512 85.7906 9.61483C88.4753 9.1386 90.8098 10.5426 92.5311 13.8457C92.993 14.7331 93.3609 15.7309 93.793 16.7267H95.4799C95.4085 16.3156 95.3871 16.0849 95.3294 15.8758C94.9083 14.3515 94.3789 12.9248 93.6399 11.6992C91.8926 8.8004 89.7892 7.03352 87.1381 7.02465C86.6723 7.02267 86.2013 6.96056 85.7419 7.04141C85.108 7.15282 84.4521 7.24551 83.8603 7.57384C81.8082 8.71265 80.1251 10.6136 78.9845 13.4927C78.2144 15.4361 77.5902 17.4662 77.563 19.802C77.5416 21.5827 77.4773 23.3634 77.4936 25.1421C77.5124 27.19 77.5961 29.23 78.1794 31.1418C79.6651 36.0116 82.0002 39.2289 85.618 39.8806C87.5261 40.2237 89.3928 39.855 91.0881 38.4115C93.2104 36.6052 94.7091 33.9598 95.4896 30.4152C95.9334 28.4018 95.973 26.3322 95.9561 24.2458C95.9561 23.7262 95.9607 23.2648 95.9698 22.8536C93.671 22.8507 90.3089 22.8517 88.1873 22.8576Z" fill="white"/>
<path fill-rule="evenodd" clip-rule="evenodd" d="M129.977 36.6258C128.769 36.6258 120.358 36.6051 119.087 36.5942V7.87836L117.296 7.90498C117.285 8.30332 117.296 29.8589 117.296 39.2012C120.893 39.2031 130 39.2021 130 39.2021L129.977 36.6258Z" fill="white"/>
<path fill-rule="evenodd" clip-rule="evenodd" d="M102.385 25.3128C103.551 20.5702 104.766 15.6295 105.934 10.877C106 10.8761 106.174 10.8751 106.239 10.8741C106.239 10.8741 108.171 18.7471 108.567 20.3789C108.953 21.9723 109.387 23.7274 109.768 25.3128H102.385ZM109.636 17.2396C108.992 14.6139 107.988 10.5014 107.277 7.50891C106.413 7.50891 105.439 7.51088 105.047 7.51088C102.494 17.5847 99.6544 28.82 97.0747 39.2024H98.9491C99.8244 35.6085 101.446 29.0369 101.671 28.1791H110.481C111.194 31.1144 112.347 35.7021 113.196 39.2024H115.005C114.472 36.9682 113.579 33.2658 113.223 31.8183C112.027 26.9584 110.828 22.1005 109.636 17.2396Z" fill="white"/>
</svg>
