<svg width="130" height="47" viewBox="0 0 130 47" fill="none" xmlns="http://www.w3.org/2000/svg">
<path fill-rule="evenodd" clip-rule="evenodd" d="M32.4405 31.587V9.73893H44.2693V12.4779H34.8899V19.195H43.3134V21.9347H34.8899V28.7824H44.9266V31.5213H32.4405V31.587ZM57.3529 31.587L53.2902 25.7831L49.2275 31.587H46.3609L51.9164 23.826L46.0615 15.804H49.288L53.2902 21.8049L57.3529 15.804H60.5188L54.9633 23.826L60.2208 31.587H57.3529ZM64.1638 29.239V40H61.7143V23.891C61.7143 19.7822 64.5815 15.413 69.0627 15.413C73.6024 15.413 77.0078 18.5437 77.0078 23.6955C77.0078 28.7175 73.5432 32.1742 69.6002 32.1742C67.6883 32.1742 65.1198 31.2609 64.1638 29.239ZM74.4393 23.6955C74.4393 20.1739 72.3484 18.0878 68.6443 18.2825C66.8521 18.3482 64.1046 19.7822 64.3427 24.8049C64.4026 26.4352 65.956 29.4994 69.3614 29.4994C72.2885 29.4994 74.4393 27.6737 74.4393 23.6955ZM79.0994 31.587V15.804H81.5489V17.4999C82.7437 15.9995 84.595 15.4779 86.5669 15.4779V18.3482C86.2682 18.2825 83.3404 17.8908 81.5489 22.0652V31.6526H79.0994V31.587ZM87.2241 23.6962C87.2241 19.1301 90.2111 15.413 94.333 15.413C99.4715 15.413 101.383 19.1308 101.383 23.891V25.1959H89.9124C90.0914 28.196 92.5408 29.7605 94.8114 29.6956C96.4838 29.6307 97.6194 29.1092 98.8149 27.805L100.427 29.6315C98.934 31.196 97.022 32.2391 94.6923 32.2391C90.3309 32.1742 87.2241 28.6526 87.2241 23.6962ZM94.1541 18.0878C91.8244 18.0878 90.0322 20.3037 89.9124 22.7181H98.8142C98.8142 20.3694 97.2615 18.0878 94.1541 18.0878ZM102.638 29.3696L104.43 27.6088C104.37 27.6088 105.326 28.6526 105.446 28.7175C105.864 29.1092 106.282 29.3696 106.82 29.5001C108.373 29.9568 111.181 29.8262 111.42 27.4782C111.539 26.174 110.643 25.4563 109.628 24.9997C108.313 24.4789 106.879 24.2827 105.565 23.6306C104.071 22.9136 103.116 21.6743 103.116 19.8486C103.116 15.0862 109.329 14.3043 112.137 16.5217C112.256 16.6523 113.63 18.0214 113.571 18.0214L111.778 19.5875C110.883 18.4131 110.046 17.8259 108.134 17.8259C107.178 17.8259 105.864 18.2825 105.625 19.3912C105.267 20.9565 106.879 21.5437 107.955 21.8698C109.389 22.2607 110.942 22.5219 112.196 23.3694C113.929 24.5438 114.348 27.0865 113.69 29.0435C112.973 31.196 110.822 32.0436 108.911 32.1077C106.641 32.2391 104.669 31.4564 103.056 29.6964C102.936 29.6964 102.638 29.3696 102.638 29.3696ZM115.243 29.3696L117.036 27.6088C116.976 27.6088 117.932 28.6526 118.051 28.7175C118.469 29.1092 118.888 29.3696 119.425 29.5001C120.978 29.9568 123.787 29.8262 124.026 27.4782C124.144 26.174 123.249 25.4563 122.233 24.9997C120.919 24.4789 119.485 24.2827 118.171 23.6306C116.678 22.9136 115.722 21.6743 115.722 19.8486C115.722 15.0862 121.935 14.3043 124.742 16.5217C124.862 16.6523 126.236 18.0214 126.177 18.0214L124.385 19.5875C123.488 18.4131 122.651 17.8259 120.74 17.8259C119.784 17.8259 118.47 18.2825 118.23 19.3912C117.872 20.9565 119.485 21.5437 120.56 21.8698C121.994 22.2607 123.548 22.5219 124.802 23.3694C126.535 24.5438 126.954 27.0865 126.296 29.0435C125.579 31.196 123.429 32.0436 121.516 32.1077C119.246 32.2391 117.275 31.4564 115.662 29.6964C115.542 29.6964 115.244 29.3696 115.244 29.3696H115.243ZM126.893 15.804V14.1081H126.356V13.782H127.789V14.1081H127.252V15.804H126.893ZM129.582 15.804V14.2394L129.044 15.804H128.924L128.387 14.2394V15.804H128.088V13.782H128.566L129.044 15.1526L129.522 13.782H130V15.804H129.582ZM15.8317 31.587L14.0395 26.3695H4.36142L2.56853 31.587H0L7.76686 9.73893H10.5742L18.2819 31.587H15.8317ZM9.08071 12.8696L5.43715 23.6962H13.0237L9.08071 12.8696ZM19.8944 31.587H22.4038V9.73968H19.8944V31.587ZM26.1671 31.587H28.6765V16.1308H26.1671V31.587ZM31.066 11.1088V10.8476C29.1548 10.7827 27.6007 9.08684 27.5415 7H27.183C27.1231 9.08684 25.5697 10.7827 23.6585 10.8476V11.1088C25.5697 11.1737 27.1231 12.8696 27.183 14.9564H27.5415C27.6007 12.8696 29.1548 11.1737 31.066 11.1088Z" fill="white"/>
</svg>
