<svg width="130" height="47" viewBox="0 0 130 47" fill="none" xmlns="http://www.w3.org/2000/svg">
<path fill-rule="evenodd" clip-rule="evenodd" d="M74.491 14.3223C76.0858 14.3223 77.0685 15.1814 77.6168 15.9043L77.773 16.1128L77.8669 15.8341C78.1157 15.1185 78.6112 14.7267 79.2547 14.7267H80.8337L80.82 31.3891C80.82 37.7412 77.4454 40 74.5547 40C73.1512 40 71.5976 39.4217 70.4051 38.4567L70.168 38.265L70.549 36.7773L70.8184 35.761C71.111 34.6589 71.5318 34.3854 72.2528 34.7165C72.8044 35.0214 73.6289 35.3587 74.5349 35.3587C76.3989 35.3587 77.429 34.0187 77.429 31.5944V31.0894L77.1665 31.3891C76.488 32.1717 75.6355 32.5551 74.5547 32.5551C71.3906 32.5551 69.1805 28.7782 69.1805 23.3711C69.1805 17.9598 71.3173 14.3223 74.491 14.3223ZM93.1386 14.4218C94.8896 14.4218 97.4952 15.5564 97.4952 18.6806V21.0484L95.7189 21.0442C95.5701 21.0442 94.8142 20.9772 94.5641 19.7063L94.549 19.6131C94.4394 19.0526 93.7472 18.7183 93.1386 18.7183C91.2622 18.7183 89.9519 20.8305 89.9519 23.8478C89.9519 27.3439 91.6412 28.9123 93.3161 28.9123C95.0411 28.9123 96.3747 26.9312 96.5385 26.6755L96.5549 26.6493L96.74 26.3486L98.1469 29.9076L98.0537 30.0836C98.0373 30.114 96.2877 33.3419 93.0694 33.3419C89.3604 33.3419 86.6719 29.367 86.6719 23.8845C86.6719 18.4051 89.3892 14.4218 93.1386 14.4218ZM18.564 14.404C22.1777 14.404 24.8004 18.3611 24.8004 23.8122C24.8004 29.2623 22.1777 33.2204 18.564 33.2204C14.9633 33.2204 12.3509 29.2623 12.3509 23.8122C12.3509 18.3611 14.9633 14.404 18.564 14.404ZM31.8955 14.404C35.5051 14.404 38.1333 18.3611 38.1333 23.8122C38.1333 29.2623 35.5051 33.2204 31.8955 33.2204C28.2914 33.2204 25.679 29.2623 25.679 23.8122C25.679 18.3611 28.2921 14.404 31.8955 14.404ZM104.649 14.404C108.258 14.404 110.886 18.3611 110.886 23.8122C110.886 29.2623 108.258 33.2204 104.649 33.2204C101.046 33.2204 98.4334 29.2623 98.4334 23.8122C98.4334 18.3611 101.046 14.404 104.649 14.404ZM53.0089 14.7749C54.2123 14.7749 54.7949 15.6759 54.7949 17.5324L54.788 32.9312H54.7812V32.9375H53.9862L53.1864 32.9417C53.1652 32.9417 53.1467 32.9375 53.1247 32.9375H51.408V28.8201H51.4094L51.3998 14.7749H53.0089ZM40.9589 7.78784C41.8978 7.78784 42.7682 8.07805 42.7682 10.2101V20.8671H43.313C43.7215 20.8671 43.9942 20.7131 44.1285 20.4114L46.5162 14.7749H50.3732L47.1953 21.9808C47.0329 22.3465 46.8637 22.6618 46.6992 22.9269L46.584 23.0945L46.6937 23.2705C46.8637 23.5408 47.0247 23.8824 47.1645 24.2836L48.4584 28.0197L50.4081 32.9438H47.7882C46.8013 32.9438 46.2777 32.6903 45.75 31.2183L43.8654 25.7881C43.7434 25.4665 43.4782 25.3973 43.0889 25.3973H42.7682V32.9428H39.3518L39.3477 7.78889H40.9582L40.9589 7.78784ZM63.7548 14.3621C66.5331 14.3621 68.001 16.7896 68.001 21.3816L68.0065 32.9365H66.3905C65.1569 32.9365 64.5861 32.0543 64.5861 30.1737V22.2616C64.5861 20.0562 64.1728 19.2024 63.1126 19.2024C61.7961 19.2024 60.7414 20.4219 60.3645 22.3842C60.2219 23.0317 60.1527 23.742 60.1527 24.5623V32.9365H56.759L56.7494 14.7675H58.2804C59.207 14.7675 59.8224 15.3553 60.004 16.4229L60.078 16.8566L60.2857 16.5381C60.9066 15.5428 62.0161 14.3621 63.7548 14.3621ZM126.047 14.4207L126.206 14.4249C128.722 14.5192 130 16.8598 130 21.3805L129.997 32.9312H128.471C127.273 32.9312 126.74 32.1161 126.74 30.2869V22.205C126.74 19.8886 126.37 19.0253 125.373 19.0253C123.993 19.0253 123.104 20.9143 122.842 22.7593C122.714 23.413 122.66 24.0689 122.66 24.9437V32.9312H119.395V22.205C119.395 20.1956 118.965 19.1563 118.084 19.0285C116.655 18.821 115.803 20.8965 115.494 22.8274C115.38 23.5513 115.322 24.2459 115.322 24.9437V32.9312H112.082L112.095 14.8356H113.521C114.411 14.8356 114.999 15.3888 115.177 16.3967L115.302 17.0955L115.623 16.5633C116.115 15.767 117.172 14.4218 118.75 14.4218C120.255 14.4218 121.337 15.3102 121.965 17.0588L122.158 17.591L122.404 17.1154C123.278 15.4286 124.64 14.4228 126.048 14.4228L126.047 14.4207ZM2.07447 7.79832H5.62443C8.73579 7.79832 10.7452 10.3515 10.7452 14.3044C10.7452 16.888 9.89536 18.3831 9.38822 19.0484L8.95235 19.6173L9.45195 20.0468C10.6643 21.0872 11.3846 23.1343 11.3846 25.5314C11.3846 29.9778 9.15384 32.8506 5.69502 32.8506L1.63586 32.8516L1.62901 32.8506H0V10.4092C0.00890918 8.99373 0.748371 7.84756 1.67081 7.79832H2.07447ZM18.564 18.8063C16.8616 18.8063 15.6802 20.8671 15.6802 23.8132C15.6802 26.7572 16.8616 28.8212 18.564 28.8212C20.2999 28.8212 21.4711 26.8054 21.4711 23.8132C21.4711 20.8671 20.2759 18.8053 18.564 18.8053V18.8063ZM31.8955 18.8063C30.1939 18.8063 29.0097 20.8671 29.0097 23.8132C29.0097 26.7572 30.1939 28.8212 31.8949 28.8212C33.6315 28.8212 34.8027 26.8054 34.8027 23.8132C34.8027 20.8671 33.6034 18.8053 31.8955 18.8053V18.8063ZM104.649 18.8063C102.948 18.8063 101.762 20.8671 101.762 23.8132C101.762 26.7572 102.948 28.8212 104.649 28.8212C106.385 28.8212 107.558 26.8054 107.558 23.8132C107.558 20.8671 106.357 18.8053 104.649 18.8053L104.649 18.8063ZM5.92186 21.8006H4.03928C3.43415 21.9305 3.16002 22.489 3.16002 23.567V28.6074L5.92255 28.6127C7.28976 28.6116 8.13751 27.3377 8.13751 25.1899C8.13751 23.0945 7.26646 21.8006 5.92186 21.8006ZM74.9776 18.8902C72.8099 18.8902 72.6406 22.2166 72.6406 23.236C72.6406 25.5493 73.3013 28.0197 75.1558 28.0197C76.2215 28.0197 77.492 27.2203 77.492 23.4067C77.492 19.3637 76.0563 18.8912 74.9776 18.8912V18.8902ZM5.6025 11.9052H4.18868C3.4828 11.9765 3.16002 12.5276 3.16002 13.6895V17.9252H5.64636C7.04373 17.9252 7.54128 16.2772 7.54128 14.865C7.54128 13.0137 6.81552 11.9052 5.6025 11.9052Z" fill="white"/>
<path d="M86.5 31C86.5 32.1046 85.6046 33 84.5 33C83.3954 33 82.5 32.1046 82.5 31C82.5 29.8954 83.3954 29 84.5 29C85.6046 29 86.5 29.8954 86.5 31Z" fill="white"/>
<path d="M54.9 11C54.9 12.1046 54.0046 13 52.9 13C51.7955 13 50.9 12.1046 50.9 11C50.9 9.89543 51.7955 9 52.9 9C54.0046 9 54.9 9.89543 54.9 11Z" fill="white"/>
</svg>
