<svg width="130" height="47" viewBox="0 0 130 47" fill="none" xmlns="http://www.w3.org/2000/svg">
<path fill-rule="evenodd" clip-rule="evenodd" d="M110.505 18.0802C110.442 17.9345 110.345 17.8474 110.244 17.8474H108.47C108.309 17.8474 108.167 18.062 108.135 18.3624L107.997 19.6369C107.603 18.9658 107.211 18.5367 106.648 18.1218L106.471 17.9749C106.449 17.9606 106.428 17.9436 106.406 17.9358C104.48 17.1334 102.544 18.235 100.96 21.0362C100.169 22.4186 99.5688 24.0208 99.1711 25.7453L101.501 7.77769C101.522 7.63464 101.504 7.47858 101.455 7.36154C101.408 7.24449 101.332 7.17557 101.254 7.17557H99.0946C99.0194 7.17557 98.9511 7.23409 98.9026 7.34073L89.5075 27.475C89.8369 24.4578 91.6831 7.76079 91.6831 7.76079C91.6831 7.72828 91.6879 7.69186 91.6879 7.66065C91.6879 7.55271 91.6694 7.44087 91.6305 7.35503C91.5826 7.24189 91.5082 7.17557 91.4323 7.17557H89.0477C88.9718 7.17557 88.9008 7.23799 88.8529 7.34073L76.9379 33.4676C76.7377 29.6637 75.7852 25.5216 75.7852 25.5216C74.1884 19.3092 70.6353 17.2973 68.6204 20.8594L68.6067 20.8659L68.2903 21.3015C69.7519 16.872 73.4607 17.0697 75.8474 22.2847C75.8474 22.2847 76.9085 24.7062 77.6608 28.3086C77.8617 27.0367 77.9847 25.718 78.0223 24.3707C76.7787 21.178 75.378 19.3027 75.378 19.3027C72.362 15.4402 68.7522 17.071 67.9453 22.0688L67.9343 22.0896L67.7786 22.7659C67.8769 17.5379 71.1389 14.193 74.5786 16.4416C74.5786 16.4416 76.1979 17.5704 77.8323 20.07C77.8105 19.871 77.7879 19.672 77.7592 19.4717C77.5829 18.1517 77.326 16.8994 76.996 15.7328C75.0896 14.1657 73.3992 13.8744 73.3992 13.8744C69.7689 13.3958 67.0741 18.2285 67.6918 23.3238L67.687 23.3511L67.728 24.0885C66.438 19.4665 68.3812 13.4765 71.9507 12.1539C71.9507 12.1539 73.609 11.6076 75.6472 12.1838C75.1306 11.1473 74.5403 10.2395 73.8857 9.47224C71.842 9.92741 70.3169 11.2708 70.3169 11.2708C67.0488 14.2984 65.987 21.0466 67.864 24.8766L67.866 24.8987L68.0963 25.5008C65.7629 22.723 65.8688 15.686 68.6128 11.1525C68.6128 11.1525 69.8954 9.1237 71.8038 7.68536C71.0166 7.23799 70.2001 7.0091 69.3774 7C67.782 9.30447 66.8513 11.8079 66.8513 11.8079C64.8172 17.5366 65.6761 24.3876 68.3074 25.9222L68.3177 25.9378L68.675 26.2408C65.9235 26.0535 64.1613 19.858 65.3447 13.3269C65.3447 13.3269 65.89 10.51 67.0925 7.54881C66.4038 7.88824 65.7526 8.38372 65.1418 9.00536C64.3649 12.5232 64.2194 15.5859 64.2194 15.5859C63.9665 22.4785 66.5138 27.5959 69.1977 26.4268L69.21 26.4333L69.5995 26.3513C67.1657 28.8041 64.0082 25.1133 63.3154 18.3312C63.3154 18.3312 63.0373 15.301 63.3154 11.5257C62.7353 12.5687 62.2276 13.7665 61.8074 15.1047C62.0677 18.8241 62.7332 21.5577 62.7332 21.5577C64.3287 27.7676 67.8817 29.782 69.8967 26.2174L69.9118 26.2122L70.2274 25.7778C68.7666 30.206 65.0571 30.0083 62.6717 24.7933C62.6717 24.7933 61.4487 21.8919 60.8091 18.512C60.8105 18.3533 60.7852 18.2011 60.7326 18.0802C60.667 17.9345 60.5713 17.8474 60.4675 17.8474H58.6957C58.5331 17.8474 58.393 18.062 58.3589 18.3624C58.3589 18.3624 58.2229 18.7552 58.1607 19.5276C57.7671 18.8592 57.3005 18.4716 56.8748 18.1218L56.6944 17.9749C56.6739 17.9606 56.6514 17.9436 56.6309 17.9358C54.7054 17.1334 52.7703 18.235 51.1851 21.0362C50.2483 22.6735 49.576 24.6152 49.194 26.7129L49.1613 26.8507L49.9149 18.6056C49.9313 18.4196 49.904 18.2246 49.8384 18.0776C49.7721 17.9319 49.6758 17.8461 49.576 17.8474L47.6847 17.8526C47.5193 17.8539 47.3772 18.0776 47.3478 18.3897L45.3937 38.6202C45.3766 38.8101 45.4046 39.0064 45.4688 39.156C45.5337 39.3003 45.6307 39.3849 45.7319 39.3849L47.725 39.394C47.8931 39.394 48.0359 39.1651 48.0632 38.853L48.8162 30.6208C48.8244 30.6729 48.8312 30.7067 48.8312 30.7067C48.8244 31.5247 48.8599 32.3544 48.9406 33.1828C49.2337 36.2767 50.6781 39.1625 52.2353 39.7503C53.5937 40.2172 55.0463 39.563 56.4799 37.8828C56.4518 38.1767 56.4067 38.6202 56.4067 38.6202C56.4026 38.6592 56.4013 38.6982 56.4013 38.7398C56.4013 38.8907 56.4286 39.0389 56.4799 39.156C56.5441 39.3029 56.6411 39.3849 56.745 39.3849L58.5037 39.394C58.6691 39.394 58.8112 39.1729 58.8413 38.8634L60.3896 22.9414C61.5477 25.5528 63.0626 27.7832 63.0626 27.7832C66.0779 31.6482 69.6863 30.0161 70.4932 25.0209L70.5055 24.9988L70.662 24.32C70.5636 29.5466 67.3003 32.8967 63.8606 30.6443C63.8606 30.6443 62.3772 29.6091 60.8146 27.3254C60.8276 27.4333 60.8392 27.5452 60.8535 27.6557C61.0394 29.0225 61.3079 30.3204 61.6557 31.5247C63.4732 32.9461 65.0413 33.2153 65.0413 33.2153C68.6695 33.6965 71.3651 28.86 70.7488 23.7634L70.7536 23.7373L70.7105 22.9974C72.0019 27.6193 70.058 33.6185 66.4865 34.932C66.4865 34.932 64.9266 35.4522 62.9696 34.9489C63.4384 35.8852 63.9659 36.7254 64.5487 37.4458C66.5767 36.979 68.0785 35.6525 68.0785 35.6525C71.348 32.6262 72.4112 25.8766 70.5342 22.0506L70.5301 22.022L70.3005 21.4238C72.6346 24.2003 72.5301 31.2373 69.7853 35.7721C69.7853 35.7721 68.4762 37.836 66.5411 39.2769C67.0741 39.619 67.6235 39.8608 68.179 40H68.9702C70.5957 37.6721 71.5441 35.1154 71.5441 35.1154C73.5803 29.3867 72.7221 22.5331 70.0887 21.0024L70.0785 20.9816L69.7225 20.6825C72.4747 20.8711 74.2376 27.0653 73.0535 33.599C73.0535 33.599 72.4617 36.6551 71.1505 39.7542C71.2558 39.71 71.3569 39.6684 71.4614 39.6164C72.1269 39.2964 72.7528 38.827 73.3343 38.2573C74.1474 34.6641 74.2977 31.4883 74.2977 31.4883C74.5526 24.6009 72.0046 19.4795 69.3187 20.6513L69.3077 20.6461L68.919 20.7241C71.3514 18.274 74.5109 21.9648 75.2051 28.7468C75.2051 28.7468 75.6055 31.8602 75.3056 35.5484C75.2482 36.0816 75.1306 36.8528 74.9038 37.6773C74.8355 37.9062 74.7501 38.1767 74.6462 38.4914L74.6489 38.4823C74.6476 38.4914 74.6435 38.4979 74.6407 38.5083C74.638 38.5174 74.638 38.5187 74.638 38.5265C74.597 38.6579 74.5888 38.8231 74.6243 38.9687C74.664 39.143 74.7555 39.2535 74.8573 39.2496H75.9636C76.5457 39.2444 77.0452 39.2379 77.71 39.2821C77.7893 39.2847 77.8651 39.2197 77.9157 39.1092L87.5363 17.2687C87.1304 21.2534 85.9791 31.4987 85.155 38.6917C85.153 38.7268 85.1509 38.7619 85.1509 38.7957C85.1509 38.9063 85.1701 39.0142 85.2056 39.1001C85.2555 39.2171 85.3286 39.2821 85.4092 39.2821L87.3552 39.2496C87.429 39.2496 87.4994 39.1898 87.5472 39.0806C87.5472 39.0806 96.1763 19.9152 97.2805 17.4664C96.8206 21.4667 95.5607 31.5715 94.6629 38.6813C94.656 38.7203 94.6533 38.7541 94.6533 38.7944C94.6533 38.8998 94.6724 39.0077 94.7093 39.0949C94.7585 39.2132 94.8316 39.2821 94.9116 39.2821H97.2129C97.3304 39.2821 97.4349 39.13 97.4629 38.9089L98.4592 31.2347L98.5979 30.1553C98.6026 30.4635 98.6047 30.7067 98.6047 30.7067C98.5999 31.5247 98.6354 32.3544 98.7161 33.1828C99.0065 36.2767 100.454 39.1625 102.009 39.7503C103.366 40.2172 104.821 39.563 106.254 37.8828L106.181 38.6202C106.177 38.6592 106.175 38.6982 106.175 38.7398C106.175 38.8907 106.202 39.0389 106.253 39.156C106.32 39.3029 106.417 39.3849 106.516 39.3849L108.277 39.394C108.444 39.394 108.585 39.1729 108.615 38.8634L110.204 22.8322L110.585 18.512C110.586 18.3533 110.561 18.2011 110.505 18.0802ZM0 38.97V38.5669C0.0109325 38.5252 0.0239147 38.4849 0.0409967 38.4498L14.2559 7.34073C14.3051 7.23669 14.3748 7.17427 14.4507 7.17427H16.7451C16.8203 7.17427 16.8927 7.24059 16.9433 7.35373C16.9795 7.43957 17.0007 7.55401 17.0007 7.65935C17.0007 7.69056 16.9973 7.72698 16.9938 7.75949C16.9938 7.75949 15.2139 24.4552 14.8825 27.475C16.0051 25.069 24.279 7.34073 24.279 7.34073C24.3268 7.23409 24.3978 7.17557 24.4689 7.17557H26.6294C26.7087 7.17557 26.7839 7.24449 26.8324 7.36154C26.8802 7.47858 26.898 7.63464 26.8775 7.77769L24.6103 25.2563C24.6295 25.1913 24.6452 25.1276 24.663 25.0677C25.7419 21.083 27.7924 18.2818 30.011 17.7668C30.0178 17.7629 30.0267 17.7629 30.0356 17.7629C32.0424 17.5704 33.5914 19.0114 34.5199 21.9245L34.535 21.9713C34.8684 23.2432 35.1171 24.9533 35.1615 26.7129C35.5408 24.6152 36.2138 22.6735 37.1499 21.0362C38.7351 18.235 40.6688 17.1334 42.5963 17.9358C42.6161 17.9436 42.64 17.9606 42.6598 17.9749L42.8389 18.1218C43.2666 18.4716 43.7319 18.8592 44.1255 19.5276C44.3339 17.6666 44.9454 12.1434 44.9454 12.1434C44.9796 11.8443 45.119 11.6285 45.2802 11.6285H47.0533C47.1558 11.6285 47.2515 11.7156 47.3171 11.8599C47.382 12.0082 47.4093 12.2059 47.3922 12.3957L44.806 38.8634C44.7753 39.1729 44.6345 39.394 44.4692 39.394L42.7097 39.3849C42.6072 39.3849 42.5088 39.3029 42.4439 39.156C42.3927 39.0389 42.3647 38.8907 42.3647 38.7398C42.3647 38.6995 42.3674 38.6579 42.3715 38.6202C42.3715 38.6202 42.4159 38.1767 42.4439 37.8828C41.0104 39.563 39.5598 40.2172 38.2001 39.749C36.6443 39.1625 35.1978 36.2767 34.9053 33.1828C34.826 32.3544 34.7905 31.5247 34.7946 30.7067C34.7331 30.8107 34.6518 30.8757 34.565 30.8757L26.3999 30.8822C26.3923 30.9473 26.3862 31.0032 26.3862 31.0708C26.3862 31.3075 26.4299 31.617 26.4859 31.9682L26.5208 32.1957C26.9082 34.0034 27.8382 35.1375 28.8931 35.0893C29.942 35.0438 30.9136 34.0906 31.7773 32.2582C31.8408 32.119 31.9344 32.041 32.0308 32.041H33.851C33.9685 32.041 34.0792 32.1554 34.14 32.3453C34.2036 32.5339 34.2118 32.7706 34.1626 32.9721C33.1288 37.0973 30.8118 39.8674 28.38 39.8674C26.6875 39.7425 25.2677 38.1793 24.4771 35.5653C24.0835 34.1725 23.897 32.4441 23.9079 30.6729L22.84 38.9089C22.8113 39.13 22.7067 39.2821 22.5892 39.2821H20.2866C20.2087 39.2821 20.1342 39.2132 20.087 39.0949C20.0488 39.0077 20.0296 38.8998 20.0296 38.7957C20.0296 38.7541 20.0331 38.719 20.0365 38.6813C20.9364 31.5715 22.197 21.4667 22.6548 17.4677L12.9229 39.0819C12.875 39.1898 12.8053 39.2496 12.7309 39.2496L10.7856 39.2821C10.707 39.2821 10.6346 39.2171 10.5847 39.1001C10.5478 39.0142 10.5273 38.905 10.5273 38.7944C10.5273 38.7619 10.5273 38.7268 10.5321 38.6917C11.3554 31.4987 12.5067 21.2521 12.9119 17.2687L3.29136 39.1092C3.24148 39.2197 3.16563 39.2847 3.08637 39.2821C2.42222 39.2379 1.92206 39.2431 1.33991 39.2496H0.232315C0.133239 39.2535 0.0423633 39.143 0 38.97ZM107.341 29.1331C106.943 31.7757 105.626 34.2921 104.338 34.8852C103.353 35.1323 102.631 34.9567 102.131 34.339C101.6 33.6471 101.334 32.4467 101.128 31.3647C101.094 30.9772 101.073 30.587 101.073 30.206C101.073 27.7988 101.753 25.4787 103.002 23.7009C103.717 22.749 104.693 22.3874 105.547 22.7594C106.029 22.9713 106.691 23.515 107.102 24.9312C107.331 25.6998 107.455 26.6739 107.455 27.6232C107.455 28.1486 107.416 28.6636 107.341 29.1331ZM27.1679 26.0964L32.4585 26.0015C32.4175 25.2823 32.218 24.61 31.7998 23.8141C31.3386 23.0637 30.7066 22.7113 29.8081 22.7021C28.8351 22.9596 27.6988 24.1743 27.1679 26.0964ZM43.5324 29.1331C43.6076 28.6636 43.6438 28.1486 43.6438 27.6245C43.6438 26.6739 43.5221 25.6998 43.2926 24.9325C42.8778 23.515 42.2198 22.9714 41.7361 22.7607C40.8833 22.3874 39.9069 22.7477 39.1888 23.7009C37.9432 25.4787 37.2633 27.7975 37.2633 30.206C37.2633 30.587 37.2824 30.9772 37.318 31.3647C37.5236 32.4467 37.7894 33.6471 38.3197 34.339C38.8226 34.9567 39.5455 35.1323 40.5273 34.8852C41.8146 34.2921 43.1313 31.7757 43.5324 29.1331ZM47.8425 12.1434L47.4291 16.3987C47.41 16.5885 47.438 16.7875 47.5029 16.941C47.5678 17.0866 47.6642 17.1725 47.768 17.1725H49.7632C49.9272 17.1725 50.0707 16.9514 50.1001 16.6393L50.4752 12.4218C50.4909 12.2332 50.4643 12.0355 50.4007 11.8886C50.3358 11.7416 50.2395 11.6545 50.1411 11.6532L48.1794 11.6207C48.0154 11.618 47.874 11.8404 47.8425 12.1434ZM57.5676 29.1331C57.1679 31.7757 55.8499 34.2921 54.5639 34.8852C53.58 35.1323 52.8585 34.9567 52.3556 34.339C51.8254 33.6471 51.5602 32.4467 51.3546 31.3647C51.319 30.9772 51.2999 30.587 51.2999 30.206C51.2999 27.7988 51.9784 25.4787 53.2268 23.7009C53.9442 22.749 54.9179 22.3874 55.7733 22.7594C56.2557 22.9713 56.9151 23.515 57.3278 24.9312C57.5581 25.6998 57.6811 26.6739 57.6811 27.6232C57.6811 28.1486 57.6421 28.6636 57.5676 29.1331ZM123.146 37.5096L119.859 27.4906C120.126 26.8936 122.923 20.4237 123.49 19.1557L123.239 21.6644C123.22 21.8555 123.248 22.0519 123.313 22.1989C123.378 22.3458 123.473 22.4342 123.576 22.4342H124.448C124.349 23.5787 123.437 34.1218 123.146 37.5096ZM113.579 19.0842L113.618 18.616C113.638 18.4274 113.609 18.2311 113.546 18.0828C113.48 17.9358 113.385 17.8487 113.284 17.8487H111.508C111.344 17.8448 111.201 18.0646 111.17 18.3741L111.12 18.8839L109.223 38.5656C109.206 38.7554 109.237 38.9544 109.303 39.1014C109.37 39.247 109.472 39.3342 109.575 39.3289L110.451 39.3042H111.274C111.438 39.3042 111.575 39.0871 111.607 38.7866L112.908 26.5724C113.338 23.4772 114.419 22.5552 115.374 22.2873C115.425 22.2743 115.618 22.2795 115.659 22.2301C115.004 29.6351 114.229 38.403 114.215 38.5513C114.198 38.7359 114.227 38.9284 114.292 39.0754C114.356 39.2197 114.453 39.3042 114.551 39.3042H116.462C116.612 39.3042 116.745 39.1222 116.787 38.8491C116.849 38.4927 117.306 33.4598 117.58 30.4362C118.288 32.4741 120.549 39.0064 120.549 39.0064C120.612 39.1885 120.72 39.2977 120.834 39.2977L123.119 39.3042C123.16 39.3042 123.198 39.286 123.237 39.2626C123.285 39.3042 123.339 39.3329 123.393 39.3289L125.322 39.3042C125.488 39.3016 125.628 39.0754 125.656 38.771L127.145 22.442L129.359 22.4355C129.525 22.4355 129.667 22.208 129.696 21.8984L129.994 18.603C129.998 18.5666 130 18.5328 130 18.4925C130 18.3442 129.971 18.1959 129.921 18.0789C129.856 17.9332 129.761 17.8487 129.658 17.8487H127.476C127.583 16.6835 127.971 12.3866 127.971 12.3866C127.973 12.3502 127.975 12.3138 127.975 12.2774C127.975 12.1226 127.948 11.9744 127.896 11.8599C127.832 11.7104 127.734 11.6298 127.635 11.6298H125.717C125.552 11.6298 125.41 11.856 125.381 12.1656C125.381 12.1656 124.955 16.9683 124.875 17.8487C124.702 17.8591 124.524 17.8656 124.524 17.8656L124.224 17.8695L123.907 17.8591C123.785 17.8539 123.676 17.9723 123.613 18.1582C123.551 17.9814 123.447 17.8656 123.331 17.8656L121.576 17.8591H121.063C120.967 17.8591 120.877 17.9358 120.811 18.0672C120.811 18.0672 119.045 21.9088 118.108 23.8375C118.382 20.7813 119.138 12.397 119.138 12.397C119.141 12.358 119.143 12.3229 119.143 12.2839C119.143 12.133 119.113 11.9848 119.061 11.8703C118.997 11.7208 118.901 11.6376 118.801 11.6376L116.891 11.6298C116.723 11.6272 116.579 11.8547 116.552 12.1643C116.508 12.6649 116.31 14.8953 116.044 17.8695L116.035 17.8435C115.968 17.694 115.87 17.6159 115.767 17.6224C114.954 17.6679 114.219 18.3 113.579 19.0842Z" fill="white"/>
<path d="M73 23.5C73 25.433 71.433 27 69.5 27C67.567 27 66 25.433 66 23.5C66 21.567 67.567 20 69.5 20C71.433 20 73 21.567 73 23.5Z" fill="white"/>
</svg>
