<svg width="130" height="47" viewBox="0 0 130 47" fill="none" xmlns="http://www.w3.org/2000/svg">
<path fill-rule="evenodd" clip-rule="evenodd" d="M25.3867 24.6069C28.0341 24.6069 30.6685 24.6253 33.3045 24.595C33.9374 24.5871 34.1239 23.8994 33.7468 23.0022C32.8133 20.7875 31.505 19.5978 29.8441 19.5253C27.7889 19.4331 25.7451 21.7558 25.3867 24.6069ZM25.2604 29.5448C26.2681 35.0216 30.5764 36.7304 33.0519 32.7661C33.3395 32.3076 33.5822 31.7332 33.983 31.525C34.6436 31.1811 35.2432 31.4064 35.7091 32.2654C36.1783 33.1297 36.215 34.268 35.7336 35.3352C34.7976 37.3997 33.491 38.6856 31.9962 39.3469C28.8194 40.754 26.0229 39.534 23.8642 35.5038C21.7023 31.4684 21.3284 26.7623 22.6969 21.9403C24.0589 17.1459 26.5239 14.7073 29.7798 14.594C33.3778 14.4688 36.6052 18.6913 37.3888 24.3697C37.7426 26.9375 36.4626 29.5132 34.7691 29.5356C31.8977 29.5738 29.0246 29.5448 26.1524 29.5448H25.2604Z" fill="black"/>
<path fill-rule="evenodd" clip-rule="evenodd" d="M93.8406 24.607C95.0836 24.607 96.3275 24.6281 97.5722 24.6004C98.2328 24.5833 98.4764 23.9404 98.1261 23.0959C97.1177 20.6664 95.6954 19.4003 93.8789 19.5373C92.0298 19.6783 90.6938 21.2158 89.8174 23.831C89.5722 24.5596 89.806 24.6228 90.1864 24.6163C91.4034 24.5952 92.622 24.607 93.8406 24.607ZM94.669 29.545C93.1686 29.545 91.6681 29.5792 90.1701 29.5265C89.6096 29.5094 89.5135 29.7084 89.7506 30.5436C91.1003 35.2774 95.0625 36.4868 97.3889 32.844C97.8125 32.18 98.2247 31.4619 98.8731 31.5331C99.4238 31.5937 99.8987 31.9244 100.165 32.8189C100.464 33.8255 100.363 34.757 99.9703 35.5923C99.181 37.2747 98.1131 38.4077 96.9051 39.0994C93.8251 40.8675 91.0034 39.9558 88.6606 36.3248C86.4474 32.8967 85.7428 28.5397 86.594 23.7836C87.4795 18.8312 89.6056 15.7851 92.7385 14.7812C96.6322 13.5349 100.56 17.5677 101.621 23.7717C102.15 26.8613 100.919 29.5186 98.9383 29.5423C97.5152 29.5595 96.0913 29.545 94.669 29.545Z" fill="black"/>
<path fill-rule="evenodd" clip-rule="evenodd" d="M13.3263 21.1549C11.9798 21.1549 10.6333 21.1444 9.28678 21.1576C8.21234 21.1681 7.53461 22.1286 7.55497 23.5725C7.57452 25.0389 8.23352 25.9269 9.31203 25.9295C11.5733 25.9335 13.8354 25.915 16.0959 25.9374C17.0164 25.948 17.1891 26.3906 16.8811 27.7674C15.757 32.7976 12.5117 35.9266 9.13934 35.2297C5.10063 34.397 2.29602 28.1337 2.99737 21.512C3.67918 15.0734 7.63561 10.7876 11.6043 12.1618C12.9866 12.64 14.136 13.7493 15.173 15.2671C16.1505 16.6992 17.4505 16.0787 17.708 14.1037C17.8619 12.918 17.4237 12.1486 16.9308 11.4767C13.8444 7.2567 10.3368 6.03802 6.56281 8.34236C2.76196 10.6625 0.535702 15.2895 0.0656865 21.8756C-0.554212 30.5631 3.28492 38.5972 8.5618 39.8277C13.9788 41.0886 19.0479 35.2982 20.0458 26.7147C20.4091 23.5949 19.188 21.1866 17.2143 21.1576C15.9183 21.1391 14.6223 21.1549 13.3263 21.1549Z" fill="black"/>
<path fill-rule="evenodd" clip-rule="evenodd" d="M110.064 14.6445C108.298 14.5721 106.692 15.3929 105.285 17.0648C103.914 18.6879 103.347 20.9685 103.697 23.6641C104.033 26.249 105.035 27.9499 106.661 28.5401C108.342 29.1501 110.032 29.7008 111.717 30.2792C112.31 30.4821 112.858 30.7627 112.978 31.9234C113.101 33.1184 112.665 33.7455 112.095 34.2369C111.894 34.4082 111.686 34.5676 111.472 34.6888C109.42 35.8456 107.764 34.6757 106.282 32.4004C105.529 31.2423 104.67 31.1738 104.049 32.1421C103.452 33.0736 103.465 34.5953 104.08 35.8179C106.555 40.7453 111.946 41.4423 114.863 37.2105C116.082 35.4424 116.597 33.2725 116.165 30.6784C115.737 28.1067 114.651 26.5915 113.048 26.0329C111.388 25.4519 109.727 24.8749 108.069 24.2886C107.451 24.0712 106.959 23.5574 106.896 22.4678C106.834 21.3901 107.25 20.7735 107.829 20.3203C109.731 18.8302 112.046 19.4942 113.487 21.9869C114.249 23.3044 115.126 23.4928 115.816 22.4849C116.515 21.4665 116.48 19.8776 115.697 18.572C114.157 16.0068 112.279 14.6841 110.064 14.6445Z" fill="black"/>
<path fill-rule="evenodd" clip-rule="evenodd" d="M121.252 24.4294C121.294 26.262 121.155 28.3555 121.477 30.4266C122.258 35.4739 125.184 39.6069 128.219 39.8875C129.168 39.9784 129.822 39.2222 129.938 37.9034C130.066 36.4515 129.591 35.4278 128.639 35.1024C128.465 35.0444 128.29 34.9917 128.117 34.9351C125.893 34.2236 124.239 30.9786 124.23 27.3015C124.225 24.9999 124.249 22.6982 124.219 20.3966C124.208 19.6258 124.309 19.3399 124.83 19.3689C126.022 19.4388 127.218 19.3992 128.412 19.3887C129.371 19.3795 129.993 18.4427 130 17.0212C130.007 15.5996 129.394 14.6721 128.42 14.6615C127.252 14.6484 126.083 14.6088 124.915 14.68C124.337 14.7142 124.101 14.4916 124.142 13.4824C124.197 12.1728 124.163 10.8527 124.154 9.53782C124.141 7.95023 123.578 6.99769 122.682 7.0135C121.821 7.02931 121.272 7.96868 121.253 9.48249C121.244 10.2229 121.266 10.962 121.249 11.7011C121.227 12.6405 121.486 13.8065 121.136 14.4494C120.807 15.0542 120.083 14.5957 119.537 14.655C118.733 14.7432 118.164 15.68 118.153 16.9658C118.14 18.2886 118.735 19.3268 119.553 19.3874C119.857 19.4085 120.167 19.4453 120.467 19.3795C121.071 19.2438 121.33 19.5152 121.268 20.6021C121.198 21.7839 121.252 22.9828 121.252 24.4294Z" fill="black"/>
<path fill-rule="evenodd" clip-rule="evenodd" d="M61.789 17.1807C61.6318 17.0094 61.6961 16.7867 61.6709 16.6036C61.4811 15.2479 60.8522 14.5206 59.9994 14.6695C59.2622 14.7934 58.7775 15.7051 58.7758 17.0581C58.7693 23.8748 58.775 30.6928 58.7701 37.5121C58.7701 38.5819 59.0724 39.3158 59.6703 39.7123C60.6803 40.3803 61.6782 39.2512 61.6912 37.3712C61.7157 34.2092 61.7067 31.0459 61.6937 27.8839C61.6888 26.9288 61.7605 25.996 61.9258 25.0909C62.4822 22.0514 63.7872 20.3334 65.6509 19.5693C66.6537 19.1595 67.0781 18.0146 66.8525 16.5469C66.6496 15.2321 65.8872 14.5905 64.9366 14.9001C63.7758 15.2782 62.751 16.1425 61.789 17.1807Z" fill="black"/>
<path fill-rule="evenodd" clip-rule="evenodd" d="M13.3263 21.1549C14.6223 21.1549 15.9183 21.1391 17.2143 21.1576C19.188 21.1866 20.4091 23.5949 20.0458 26.7147C19.0479 35.2982 13.9788 41.0886 8.5618 39.8277C3.28492 38.5972 -0.554212 30.5631 0.0656865 21.8756C0.535702 15.2895 2.76196 10.6625 6.56281 8.34236C10.3368 6.03802 13.8444 7.2567 16.9308 11.4767C17.4237 12.1486 17.8619 12.918 17.708 14.1037C17.4505 16.0787 16.1505 16.6992 15.173 15.2671C14.136 13.7493 12.9866 12.64 11.6043 12.1618C7.63561 10.7876 3.67918 15.0734 2.99737 21.512C2.29602 28.1337 5.10063 34.397 9.13934 35.2297C12.5117 35.9266 15.757 32.7976 16.8811 27.7674C17.1891 26.3906 17.0164 25.948 16.0959 25.9374C13.8354 25.915 11.5733 25.9335 9.31203 25.9295C8.23352 25.9269 7.57452 25.0389 7.55497 23.5725C7.53461 22.1286 8.21234 21.1681 9.28678 21.1576C10.6333 21.1444 11.9798 21.1549 13.3263 21.1549Z" fill="black"/>
<path fill-rule="evenodd" clip-rule="evenodd" d="M81.3709 27.2136C81.3701 22.9739 79.2456 19.5234 76.6325 19.5181C74.0413 19.5128 71.8598 23.0015 71.8435 27.1754C71.8256 31.5652 73.9712 35.0882 76.6365 35.046C79.3002 35.0065 81.3733 31.5758 81.3709 27.2136ZM71.7653 37.324C71.7352 37.4821 71.7026 37.6283 71.6798 37.7785C71.4419 39.3252 70.8937 40.013 70.0148 39.8615C69.2409 39.7244 68.744 38.739 68.7408 37.2317C68.7318 32.3439 68.7375 27.4533 68.7375 22.5641C68.7375 18.2889 68.7326 14.015 68.7399 9.74234C68.7424 8.25489 69.1676 7.30108 69.8926 7.05998C70.8831 6.73061 71.6716 7.78592 71.6855 9.53286C71.705 12.0361 71.6896 14.5419 71.6896 17.3298C73.6087 14.9859 75.6908 14.2271 77.9154 14.7923C80.1572 15.3627 81.9289 17.2626 83.1817 20.3257C85.1261 25.0792 84.7661 31.6838 82.3712 35.8194C79.591 40.619 76.0468 41.1302 71.7653 37.324Z" fill="black"/>
<path fill-rule="evenodd" clip-rule="evenodd" d="M47.1128 34.9679C49.8091 34.9758 51.9237 31.6268 51.9368 27.3238C51.9482 23.0196 49.84 19.5559 47.1853 19.5177C44.52 19.4795 42.3507 22.9946 42.3548 27.341C42.3589 31.5741 44.4711 34.9587 47.1128 34.9679ZM52.0288 17.2543C52.182 15.5626 52.6104 14.7576 53.4095 14.6614C54.2755 14.5587 54.9744 15.4783 54.9801 16.8906C55.0053 23.8391 55.0102 30.7836 55.0053 37.732C55.0045 38.8216 54.4872 39.6977 53.8527 39.8703C53.135 40.0653 52.5127 39.5554 52.2349 38.5067C52.1396 38.1431 52.094 37.7452 52.0264 37.3618C47.4696 41.2655 43.5954 40.4566 40.9651 35.0562C38.6191 30.2421 38.769 23.4926 41.3447 18.7602C43.4252 14.9381 47.7685 12.3637 52.0288 17.2543Z" fill="black"/>
<path fill-rule="evenodd" clip-rule="evenodd" d="M110.064 14.6445C112.279 14.6841 114.157 16.0068 115.697 18.572C116.48 19.8776 116.515 21.4665 115.816 22.4849C115.126 23.4928 114.249 23.3044 113.487 21.9869C112.046 19.4942 109.731 18.8302 107.829 20.3203C107.25 20.7735 106.834 21.3901 106.896 22.4678C106.959 23.5574 107.451 24.0712 108.069 24.2886C109.727 24.8749 111.388 25.4519 113.048 26.0329C114.651 26.5915 115.737 28.1067 116.165 30.6784C116.597 33.2725 116.082 35.4424 114.863 37.2105C111.946 41.4423 106.555 40.7453 104.08 35.8179C103.465 34.5953 103.452 33.0736 104.049 32.1421C104.67 31.1738 105.529 31.2423 106.282 32.4004C107.764 34.6757 109.42 35.8456 111.472 34.6888C111.686 34.5676 111.894 34.4082 112.095 34.2369C112.665 33.7455 113.101 33.1184 112.978 31.9234C112.858 30.7627 112.31 30.4821 111.717 30.2792C110.032 29.7008 108.342 29.1501 106.661 28.5401C105.035 27.9499 104.033 26.249 103.697 23.6641C103.347 20.9685 103.914 18.6879 105.285 17.0648C106.692 15.3929 108.298 14.5721 110.064 14.6445Z" fill="black"/>
<path fill-rule="evenodd" clip-rule="evenodd" d="M121.252 24.4294C121.252 22.9828 121.198 21.7839 121.268 20.6021C121.33 19.5152 121.071 19.2438 120.467 19.3795C120.167 19.4453 119.857 19.4085 119.553 19.3874C118.735 19.3268 118.14 18.2886 118.153 16.9658C118.164 15.68 118.733 14.7432 119.537 14.655C120.083 14.5957 120.807 15.0542 121.136 14.4494C121.486 13.8065 121.227 12.6405 121.249 11.7011C121.266 10.962 121.244 10.2229 121.253 9.48249C121.272 7.96868 121.821 7.02931 122.682 7.0135C123.578 6.99769 124.141 7.95023 124.154 9.53782C124.163 10.8527 124.197 12.1728 124.142 13.4824C124.101 14.4916 124.337 14.7142 124.915 14.68C126.083 14.6088 127.252 14.6484 128.42 14.6615C129.394 14.6721 130.007 15.5996 130 17.0212C129.993 18.4427 129.371 19.3795 128.412 19.3887C127.218 19.3992 126.022 19.4388 124.83 19.3689C124.309 19.3399 124.208 19.6258 124.219 20.3966C124.249 22.6982 124.225 24.9999 124.23 27.3015C124.239 30.9786 125.893 34.2236 128.117 34.9351C128.29 34.9917 128.465 35.0444 128.639 35.1024C129.591 35.4278 130.066 36.4515 129.938 37.9034C129.822 39.2222 129.168 39.9784 128.219 39.8875C125.184 39.6069 122.258 35.4739 121.477 30.4266C121.155 28.3555 121.294 26.262 121.252 24.4294Z" fill="black"/>
<path fill-rule="evenodd" clip-rule="evenodd" d="M61.789 17.1807C62.751 16.1425 63.7758 15.2782 64.9366 14.9001C65.8872 14.5905 66.6496 15.2321 66.8525 16.5469C67.0781 18.0146 66.6537 19.1595 65.6509 19.5693C63.7872 20.3334 62.4822 22.0514 61.9258 25.0909C61.7605 25.996 61.6888 26.9288 61.6937 27.8839C61.7067 31.0459 61.7157 34.2092 61.6912 37.3712C61.6782 39.2512 60.6803 40.3803 59.6703 39.7123C59.0724 39.3158 58.7701 38.5819 58.7701 37.5121C58.775 30.6928 58.7693 23.8748 58.7758 17.0581C58.7775 15.7051 59.2622 14.7934 59.9994 14.6695C60.8522 14.5206 61.4811 15.2479 61.6709 16.6036C61.6961 16.7867 61.6318 17.0094 61.789 17.1807Z" fill="black"/>
</svg>
