<svg width="50" height="50" viewBox="0 0 50 50" fill="none" xmlns="http://www.w3.org/2000/svg">
<rect width="50" height="50" fill="black"/>
<path fill-rule="evenodd" clip-rule="evenodd" d="M43.0959 16.6031C41.4992 14.1427 38.3127 13.2637 35.6791 14.5557C32.8672 15.9853 31.7456 19.4217 33.171 22.2334C33.9853 23.836 35.5061 24.9638 37.2759 25.2762C37.0604 32.0538 31.3905 37.377 24.6096 37.1617C18.0248 36.9534 12.7771 31.5861 12.717 24.9974C12.7064 19.9212 15.8611 15.3781 20.6231 13.6167C21.538 13.2866 22.0679 12.3282 21.856 11.3769L21.8418 11.3187C21.6087 10.2773 22.2622 9.24657 23.3008 9.01183C23.3856 8.99418 23.4721 8.98006 23.5587 8.973C24.0356 8.92887 24.5178 8.90593 25 8.90593C25.597 8.90593 26.1958 8.94123 26.7875 9.00477C27.8614 9.12302 28.8294 8.34642 28.9442 7.27507C28.9495 7.23977 28.953 7.20094 28.9548 7.16564C28.983 6.10135 28.1741 5.19944 27.1143 5.11119C26.4113 5.0353 25.7048 5 25 5C13.9552 5 5 13.9556 5 25.0009C5 36.048 13.9552 45 25 45C36.0465 45 45 36.048 45 25.0009C45 23.0453 44.6061 18.8305 43.0959 16.6031Z" fill="white"/>
<path fill-rule="evenodd" clip-rule="evenodd" d="M32.8696 6.51819C34.0275 6.51819 34.966 7.44599 34.966 8.59012C34.966 9.73425 34.0275 10.662 32.8696 10.662C31.7119 10.662 30.7733 9.73425 30.7733 8.59012C30.7733 7.44599 31.7119 6.51819 32.8696 6.51819Z" fill="white"/>
</svg>
